<?xml version="1.0" standalone="no"?>
<!DOCTYPE svg PUBLIC "-//W3C//DTD SVG 20010904//EN"
 "http://www.w3.org/TR/2001/REC-SVG-20010904/DTD/svg10.dtd">
<svg version="1.0" xmlns="http://www.w3.org/2000/svg"
 width="2000.000000pt" height="2000.000000pt" viewBox="0 0 2000.000000 2000.000000"
 preserveAspectRatio="xMidYMid meet">

<g transform="translate(0.000000,2000.000000) scale(0.100000,-0.100000)"
fill="#000000" stroke="none">
<path d="M0 10000 l0 -10000 10000 0 10000 0 0 10000 0 10000 -10000 0 -10000
0 0 -10000z m10470 6530 c500 -15 798 -37 1330 -96 1317 -146 2788 -509 4130
-1017 80 -30 177 -67 215 -82 182 -69 493 -198 845 -351 301 -130 692 -317
698 -333 7 -17 -59 -491 -108 -786 -69 -408 -137 -733 -234 -1127 -72 -288
-165 -628 -176 -641 -5 -5 -673 431 -807 528 -2 1 24 107 57 236 32 129 78
317 100 419 65 292 165 818 157 826 -22 22 -798 340 -1127 462 -1394 519
-2744 836 -4155 976 -395 40 -710 56 -1210 63 -1783 25 -3529 -275 -5305 -912
-394 -141 -767 -291 -1200 -483 -231 -102 -213 -89 -206 -144 27 -202 160
-836 247 -1181 34 -131 59 -240 57 -241 -1 -2 -43 -27 -93 -56 -285 -170 -454
-345 -643 -670 -25 -43 -265 871 -386 1470 -77 384 -196 1136 -196 1242 0 27
11 34 197 126 1295 641 2729 1145 4073 1431 452 96 1086 203 1435 241 885 97
1514 124 2305 100z m170 -2154 c1200 -78 2186 -308 2911 -682 l85 -44 165 0
c552 0 1296 -117 1762 -276 188 -65 437 -184 437 -209 0 -6 -18 -29 -40 -50
-60 -58 -74 -117 -67 -270 6 -116 26 -231 64 -362 l18 -63 155 -103 c542 -361
911 -609 908 -612 -2 -2 -962 -11 -2133 -20 l-2130 -16 -130 -36 c-141 -38
-373 -102 -665 -183 -102 -29 -239 -67 -305 -85 -66 -18 -203 -56 -305 -84
-102 -29 -250 -70 -330 -92 -80 -23 -199 -56 -265 -74 -434 -121 -749 -208
-800 -221 -25 -6 116 69 425 228 129 66 285 146 345 178 61 32 184 96 275 142
91 47 372 193 625 324 l460 239 1718 3 1718 2 75 115 c41 64 73 119 70 124 -3
4 -119 11 -258 14 -654 17 -1040 31 -1022 38 10 4 147 24 304 44 157 20 299
41 315 46 20 6 93 72 198 177 l167 168 0 91 0 91 -67 16 c-481 109 -1155 162
-1743 137 -770 -32 -1499 -142 -2675 -401 -126 -28 -356 -78 -510 -111 -154
-33 -287 -62 -295 -65 -12 -5 -10 -9 10 -22 60 -41 207 -170 312 -275 103
-103 206 -217 196 -217 -2 0 -70 38 -152 84 -279 160 -551 284 -786 358 l-125
40 -380 2 -380 1 -119 -33 c-223 -61 -385 -156 -569 -332 -60 -57 -148 -152
-194 -210 -87 -107 -260 -362 -329 -482 -45 -79 -15 -71 -309 -93 -448 -33
-868 -65 -1045 -80 -102 -8 -309 -24 -460 -35 -151 -11 -304 -22 -340 -25 -67
-5 52 23 400 95 80 16 296 61 480 99 184 38 416 86 515 107 99 20 257 53 352
73 l172 36 350 448 c193 247 351 452 351 456 0 3 -17 5 -37 4 -21 -2 -139 -10
-263 -18 -124 -9 -342 -25 -485 -35 -143 -11 -395 -29 -560 -40 -165 -11 -448
-31 -630 -45 -181 -13 -402 -29 -490 -35 -88 -6 -248 -17 -355 -25 -107 -8
-296 -22 -420 -31 -124 -9 -227 -18 -229 -20 -3 -2 5 -17 16 -32 60 -82 123
-261 153 -439 30 -175 27 -183 -29 -76 -143 269 -308 423 -488 454 -248 44
-542 -173 -835 -614 -43 -65 -94 -148 -114 -183 -20 -36 -38 -63 -41 -61 -2 3
6 47 18 98 123 529 443 858 999 1029 149 45 299 75 634 125 345 52 551 96 530
114 -5 4 -26 19 -46 34 -91 67 -122 228 -63 335 66 121 190 172 420 172 118 0
156 -8 191 -41 20 -19 21 -19 120 72 673 616 1319 970 1977 1084 151 26 743
65 1182 79 275 8 1203 -4 1435 -18z m2135 -1775 l220 -218 200 -27 c110 -15
263 -35 340 -44 l140 -18 -125 -7 c-69 -4 -215 -9 -325 -12 -110 -3 -346 -10
-525 -16 -640 -20 -1735 -47 -1742 -43 -15 9 -198 233 -198 242 0 19 494 138
914 222 201 40 605 109 781 133 99 14 80 26 320 -212z m-7850 -4451 c54 -242
100 -438 103 -436 2 3 45 200 96 438 l92 433 87 3 c51 2 87 -1 87 -7 0 -11
-248 -1166 -256 -1193 -5 -16 -25 -18 -230 -18 -123 0 -224 2 -224 4 0 5 -189
785 -202 831 -10 38 -16 14 -104 -395 -51 -239 -94 -436 -94 -437 0 -6 -170
-2 -170 3 0 10 250 1187 255 1202 3 9 59 12 233 12 l228 0 99 -440z m1761 423
c-3 -10 -62 -283 -132 -608 -69 -324 -127 -591 -128 -593 -2 -1 -95 -1 -208 0
l-205 3 119 555 c64 305 123 579 129 608 l10 52 210 0 c196 0 210 -1 205 -17z
m1294 8 c0 -8 -90 -434 -104 -494 -7 -28 4 -17 245 254 l222 249 109 0 110 0
-165 -177 c-90 -98 -187 -203 -215 -234 l-51 -55 145 -373 c79 -205 144 -374
144 -377 0 -2 -94 -4 -208 -4 l-208 0 -79 253 c-43 138 -81 258 -85 265 -3 7
-31 -106 -61 -250 l-55 -263 -207 -3 c-114 -1 -207 1 -207 4 0 9 250 1187 255
1202 5 15 415 18 415 3z m-2377 -1781 c36 -11 75 -28 87 -38 l22 -18 -24 -89
-24 -90 -115 -3 -115 -3 0 55 c-1 74 -23 106 -69 106 -54 0 -105 -52 -112
-112 -5 -41 -2 -50 21 -71 17 -16 58 -33 109 -46 131 -35 169 -52 213 -95 94
-93 85 -258 -20 -362 -80 -80 -195 -114 -386 -114 -149 0 -310 45 -310 86 0 8
10 53 21 99 l21 85 122 0 122 0 -4 -34 c-5 -47 15 -103 44 -122 61 -41 154 29
154 116 0 63 -36 91 -168 132 -118 36 -177 78 -201 141 -17 45 -13 147 8 194
39 85 141 157 268 187 91 22 258 20 336 -4z m3672 5 c33 -9 85 -28 117 -42 65
-29 62 -7 27 -182 -11 -51 -19 -95 -19 -97 0 -2 -56 -4 -125 -4 l-125 0 7 89
c7 103 1 136 -28 152 -103 54 -219 -203 -236 -521 -5 -87 -3 -111 11 -138 44
-85 138 -26 185 117 12 35 21 70 21 78 0 10 28 13 131 13 131 0 131 0 125 -22
-3 -13 -16 -72 -28 -132 l-21 -109 -65 -29 c-98 -45 -189 -61 -312 -55 -249
11 -360 122 -360 360 0 89 25 191 65 273 57 116 177 213 306 248 73 20 249 20
324 1z m1824 -15 c24 -14 53 -37 64 -51 21 -29 33 -103 23 -143 -10 -41 -62
-92 -116 -115 l-50 -21 32 -65 c17 -35 35 -62 40 -59 5 3 20 28 33 55 25 48
27 49 70 49 34 0 45 -4 45 -15 0 -15 -54 -125 -85 -175 -16 -24 -14 -29 54
-156 39 -72 73 -139 77 -148 6 -14 -11 -16 -170 -16 l-176 0 -17 35 c-20 42
-26 43 -65 10 -45 -38 -128 -58 -219 -53 -154 9 -244 85 -256 216 -13 139 70
252 223 302 35 12 64 23 64 25 0 1 -7 22 -15 45 -42 118 15 234 140 286 53 22
72 24 160 22 84 -3 107 -7 144 -28z m3224 10 c36 -11 75 -28 86 -38 l21 -17
-20 -75 c-12 -41 -23 -83 -26 -92 -5 -16 -19 -18 -120 -18 l-114 0 0 58 c0 74
-18 102 -66 102 -65 0 -114 -53 -114 -125 0 -49 33 -80 106 -100 199 -53 244
-77 280 -153 26 -55 24 -176 -6 -236 -63 -132 -228 -195 -480 -183 -118 5
-191 22 -247 56 l-31 20 14 58 c9 32 20 75 25 96 l10 37 118 0 119 0 4 -62 c4
-51 9 -65 32 -85 33 -28 61 -29 104 -3 35 22 62 72 62 116 0 44 -54 87 -150
119 -123 40 -177 72 -206 120 -71 121 -21 269 118 352 117 71 342 96 481 53z
m-7858 -22 c-14 -72 -3 -67 -157 -70 l-142 -3 -28 -125 c-15 -69 -28 -128 -28
-132 0 -5 52 -8 115 -8 128 0 125 2 104 -72 l-10 -38 -117 0 -118 0 -30 -142
-30 -143 139 -3 139 -3 -7 -47 c-4 -26 -9 -50 -12 -54 -2 -5 -135 -8 -294 -8
l-289 0 5 23 c3 12 44 204 91 427 46 223 87 411 89 418 3 9 72 12 295 12 l292
0 -7 -32z m690 -3 c46 -23 64 -40 82 -74 59 -112 7 -265 -111 -327 -31 -16
-56 -32 -56 -36 0 -4 32 -89 71 -190 39 -101 74 -191 76 -200 5 -17 -7 -18
-148 -18 l-154 0 -59 190 c-33 105 -64 189 -70 187 -9 -3 -16 -30 -66 -269
l-23 -108 -149 0 -150 0 4 23 c3 12 45 210 94 440 l88 419 256 -4 256 -3 59
-30z m570 -212 c10 -137 21 -270 24 -296 l6 -48 141 293 141 293 71 3 70 3
-205 -441 -206 -440 -164 0 c-89 0 -163 3 -163 8 0 4 -11 194 -25 422 -14 228
-25 423 -25 433 0 15 14 17 158 17 l158 0 19 -247z m829 185 c-36 -171 -166
-776 -171 -795 -5 -23 -8 -23 -154 -23 l-149 0 5 23 c3 12 44 204 91 427 46
223 87 411 89 418 3 9 43 12 153 12 l150 0 -14 -62z m1633 48 c-3 -8 -9 -31
-13 -50 l-6 -36 -139 0 c-76 0 -140 -4 -143 -8 -6 -9 -56 -237 -56 -253 0 -5
52 -9 115 -9 74 0 115 -4 115 -11 0 -5 -5 -30 -11 -55 l-11 -44 -119 0 c-66 0
-119 -2 -119 -5 0 -5 -44 -216 -55 -262 l-5 -23 141 0 141 0 -6 -37 c-15 -80
16 -73 -308 -73 l-290 0 4 23 c3 12 45 210 93 440 l89 417 294 0 c251 0 293
-2 289 -14z m2098 3 c119 -22 177 -73 196 -172 12 -69 -2 -160 -36 -227 -59
-116 -200 -180 -396 -180 l-66 0 -29 -142 -30 -143 -151 -3 c-141 -2 -151 -1
-147 15 2 10 42 198 89 418 47 220 87 410 90 423 5 22 6 22 213 22 115 0 235
-5 267 -11z m653 -11 c-3 -13 -45 -211 -94 -440 l-89 -418 -147 0 c-109 0
-148 3 -148 12 0 7 41 202 90 435 50 233 90 426 90 428 0 3 68 5 151 5 l151 0
-4 -22z m732 10 c0 -7 -3 -30 -6 -50 l-7 -38 -138 0 c-93 0 -140 -4 -145 -12
-4 -6 -19 -67 -34 -135 l-27 -123 119 0 c109 0 119 -2 114 -17 -3 -10 -8 -35
-12 -55 l-6 -38 -119 0 c-115 0 -119 -1 -124 -22 -29 -131 -55 -252 -55 -259
0 -5 63 -9 140 -9 77 0 140 -2 140 -5 0 -2 -5 -27 -11 -55 l-11 -50 -289 0
c-218 0 -289 3 -289 12 0 7 41 202 90 435 50 233 90 426 90 428 0 3 131 5 290
5 225 0 290 -3 290 -12z m1517 -2 c-3 -8 -9 -31 -13 -50 l-6 -36 -139 0 c-76
0 -140 -4 -143 -8 -6 -9 -56 -237 -56 -253 0 -5 52 -9 115 -9 74 0 115 -4 115
-11 0 -5 -5 -30 -11 -55 l-11 -44 -119 0 c-66 0 -119 -2 -119 -5 0 -5 -44
-216 -55 -262 l-5 -23 141 0 141 0 -6 -37 c-15 -80 16 -73 -308 -73 l-290 0 4
23 c3 12 45 210 93 440 l89 417 294 0 c251 0 293 -2 289 -14z"/>
<path d="M8040 14165 c-507 -62 -944 -263 -1410 -649 -140 -115 -384 -367
-588 -605 -105 -124 -190 -226 -189 -227 3 -4 382 55 727 111 118 19 325 53
460 75 134 22 247 44 251 48 4 4 60 95 125 202 64 107 204 332 311 499 106
167 192 305 190 307 -5 5 -212 -43 -306 -72 -419 -127 -886 -402 -1282 -754
-40 -36 -69 -58 -64 -50 51 88 292 341 421 443 390 306 831 508 1299 592 138
25 407 30 534 11 129 -20 274 -69 377 -127 96 -54 224 -178 277 -269 67 -117
135 -326 125 -392 -3 -24 14 -20 -628 -117 -74 -12 -281 -43 -459 -71 -179
-28 -328 -49 -333 -48 -4 2 104 34 240 72 499 139 599 167 707 197 235 64 242
67 255 98 21 52 -24 156 -109 253 -90 101 -273 209 -412 243 -81 19 -238 30
-311 21 l-56 -7 -54 -92 c-433 -743 -525 -903 -522 -906 3 -3 212 27 539 79
99 16 254 40 345 54 238 36 902 146 924 152 17 6 18 14 12 99 -26 346 -183
572 -502 721 -231 108 -567 149 -894 109z"/>
<path d="M10665 14099 c-148 -4 -303 -10 -343 -11 l-73 -3 223 -119 c123 -66
358 -191 522 -279 l300 -161 235 13 c130 6 308 16 396 21 88 5 293 16 455 25
162 8 372 19 465 25 94 5 239 12 322 16 84 4 150 10 148 14 -3 4 -67 35 -142
68 -478 209 -865 324 -1273 378 -150 20 -804 27 -1235 13z"/>
<path d="M10923 6735 c-13 -9 -23 -24 -23 -35 0 -29 72 -160 87 -160 8 0 28
13 44 29 38 38 41 106 7 146 -29 33 -84 42 -115 20z"/>
<path d="M10687 6350 c-45 -76 -27 -196 37 -245 37 -28 113 -35 122 -12 5 14
-123 287 -135 287 -4 0 -15 -13 -24 -30z"/>
<path d="M6865 6709 c-6 -18 -65 -290 -65 -302 0 -17 99 -1 121 19 63 57 95
232 51 276 -17 17 -101 23 -107 7z"/>
<path d="M12080 6663 c-7 -32 -27 -124 -45 -205 l-32 -148 46 0 c26 0 56 7 69
16 49 34 101 186 102 297 0 63 -31 97 -89 97 l-40 0 -11 -57z"/>
</g>
</svg>
