<?xml version="1.0" standalone="no"?>
<!DOCTYPE svg PUBLIC "-//W3C//DTD SVG 20010904//EN"
 "http://www.w3.org/TR/2001/REC-SVG-20010904/DTD/svg10.dtd">
<svg version="1.0" xmlns="http://www.w3.org/2000/svg"
 width="4761.000000pt" height="4467.000000pt" viewBox="0 0 4761.000000 4467.000000"
 preserveAspectRatio="xMidYMid meet">

<g transform="translate(0.000000,4467.000000) scale(0.100000,-0.100000)"
fill="#000000" stroke="none">
<path d="M17890 37304 c-19 -2 -98 -9 -175 -15 -637 -49 -1435 -233 -2080
-479 -1369 -522 -2681 -1491 -3941 -2910 -71 -80 -285 -325 -475 -545 -190
-220 -383 -440 -428 -490 -78 -85 -181 -226 -181 -246 0 -5 10 -7 23 -4 12 2
126 21 252 40 127 20 1072 171 2100 335 1029 165 1904 304 1945 310 105 16
163 36 192 68 14 15 89 137 168 272 288 494 545 908 1302 2098 263 414 478
754 478 756 0 24 -195 -8 -510 -85 -1285 -313 -2581 -976 -3842 -1966 -286
-225 -620 -505 -657 -551 -32 -39 -79 -68 -100 -61 -20 8 18 80 73 136 31 32
97 109 146 172 354 451 1026 1042 1695 1490 879 590 1802 996 2852 1255 1000
247 1828 270 2606 72 232 -59 397 -120 612 -226 276 -135 491 -287 690 -485
327 -327 558 -747 676 -1229 39 -160 83 -429 75 -459 -3 -14 -17 -32 -31 -41
-17 -11 -247 -50 -752 -126 -401 -60 -1128 -170 -1618 -245 -489 -74 -1054
-160 -1255 -191 -201 -30 -380 -62 -398 -70 -60 -28 -282 -31 -282 -5 0 14 77
41 115 41 18 0 298 75 622 166 2262 637 2790 787 2822 804 50 25 88 65 102
108 39 118 -56 396 -205 596 -73 99 -288 321 -416 428 -370 312 -855 518
-1349 573 -284 31 -615 27 -740 -11 -90 -26 -135 -82 -300 -374 -80 -140 -275
-477 -434 -749 -290 -496 -1134 -1948 -1156 -1989 l-12 -23 68 7 c137 13 3773
587 4921 778 771 127 722 113 730 209 5 68 -14 357 -33 494 -104 737 -486
1340 -1110 1749 -515 338 -1224 552 -2024 614 -121 9 -673 12 -761 4z"/>
<path d="M27455 37089 c-269 -4 -818 -17 -1220 -29 -401 -11 -981 -24 -1287
-27 -589 -6 -580 -6 -540 -51 9 -11 251 -145 537 -297 286 -153 994 -532 1574
-842 738 -395 1069 -568 1105 -575 40 -8 255 0 986 41 1388 76 4203 227 4775
256 275 14 509 26 520 28 42 5 -411 228 -810 399 -1468 630 -2788 967 -4206
1073 -188 14 -809 37 -904 33 -22 -1 -260 -5 -530 -9z"/>
<path d="M37292 31444 c-29 -7 -63 -19 -75 -26 -19 -11 -12 -14 63 -21 47 -5
104 -6 127 -2 37 5 43 10 43 30 0 12 -7 26 -16 29 -25 10 -85 6 -142 -10z"/>
<path d="M19020 30759 c-148 -15 -379 -65 -523 -113 -563 -189 -1006 -531
-1453 -1121 -348 -461 -587 -943 -775 -1563 -25 -84 -62 -128 -112 -136 -37
-7 -30 -6 -2032 -91 -2298 -97 -3833 -161 -4685 -195 -421 -17 -953 -39 -1182
-50 -457 -20 -471 -19 -523 34 -17 17 -86 130 -155 251 -68 121 -260 461 -428
755 -168 294 -318 560 -333 591 -35 71 -59 84 -59 33 0 -20 6 -48 14 -62 8
-15 100 -443 205 -951 l190 -924 -17 -34 -18 -34 -158 428 c-384 1039 -605
1587 -805 1998 -258 530 -438 788 -607 871 -55 27 -67 29 -174 29 -137 0 -191
-15 -375 -107 -345 -171 -620 -372 -895 -654 -250 -256 -426 -512 -607 -879
-420 -856 -500 -1768 -241 -2780 98 -386 153 -521 429 -1045 71 -135 198 -400
283 -590 450 -1008 960 -2048 1543 -3147 152 -288 178 -323 252 -343 61 -16
3216 -9 3233 8 17 17 3 42 -259 503 -308 538 -462 822 -957 1764 -81 154 -157
295 -168 313 -11 18 -18 39 -15 47 3 7 34 23 69 34 35 11 128 42 208 70 165
57 274 75 365 62 33 -6 404 -89 825 -186 421 -97 1330 -304 2020 -461 3200
-727 3838 -872 5050 -1149 712 -162 1319 -302 1347 -310 44 -13 73 -34 176
-128 191 -174 346 -284 609 -432 148 -83 236 -118 338 -134 88 -15 22978 -15
23032 0 20 5 39 13 41 17 2 4 -459 410 -1024 902 -566 492 -1029 898 -1029
902 0 19 69 38 210 57 615 85 806 126 1630 347 794 214 1153 301 1665 404 160
32 344 75 410 95 500 151 1018 467 1237 755 63 82 130 219 165 335 24 83 27
104 27 275 1 276 -36 430 -105 438 -14 2 -122 -24 -240 -58 -306 -87 -408
-112 -431 -104 -19 6 -20 12 -15 88 3 44 19 137 36 206 35 141 37 167 16 236
-25 83 -21 96 51 176 184 204 302 410 349 608 20 87 19 256 -1 339 -27 111
-75 201 -148 280 -118 129 -116 137 114 412 47 56 106 126 132 155 98 110 108
161 108 560 0 239 -1 252 -20 269 -17 15 -57 21 -243 36 -122 10 -316 26 -432
36 -180 15 -316 18 -965 17 -415 0 -948 -6 -1185 -12 -236 -7 -788 -16 -1225
-22 -1042 -13 -1989 -28 -2590 -40 -1004 -21 -1755 -30 -2730 -36 -1021 -5
-1280 -12 -1450 -39 -257 -41 -463 -126 -645 -266 -90 -69 -241 -157 -299
-174 -27 -8 -157 -24 -290 -35 -257 -22 -435 -39 -716 -70 -96 -10 -215 -22
-265 -25 -265 -18 -391 -35 -520 -67 -44 -11 -633 -218 -1310 -460 -1432 -512
-2626 -938 -3825 -1363 -1068 -379 -1016 -360 -1056 -390 -73 -56 -80 -99 -55
-377 22 -239 99 -1248 108 -1413 5 -97 5 -102 -20 -130 -25 -29 -28 -30 -114
-30 -48 1 -203 6 -343 13 -140 7 -366 17 -503 21 -277 10 -305 17 -338 82 -10
19 -43 153 -74 299 -173 812 -432 1710 -755 2615 -191 536 -465 1234 -590
1503 -350 755 -839 1377 -1465 1862 -419 324 -852 515 -1330 586 -124 19 -458
26 -585 13z"/>
<path d="M40030 19880 c-688 -71 -1212 -375 -1553 -900 -186 -288 -319 -677
-373 -1097 -34 -263 -19 -664 36 -932 115 -565 490 -887 1105 -950 333 -34
682 -34 958 0 373 46 696 181 942 395 259 225 518 656 659 1094 90 279 129
534 130 840 1 631 -145 1014 -482 1271 -115 87 -301 172 -480 219 -183 49
-304 62 -587 65 -148 2 -308 0 -355 -5z"/>
<path d="M27430 19829 c-75 -16 -90 -50 -146 -320 -24 -122 -67 -322 -94 -443
-177 -802 -317 -1493 -359 -1781 -52 -358 -50 -520 10 -700 43 -127 81 -188
178 -286 195 -195 478 -294 921 -319 173 -10 530 1 690 21 391 49 703 191 940
429 189 188 319 418 400 706 17 60 69 282 116 494 102 459 454 2126 454 2151
0 10 -7 25 -16 33 -13 14 -49 16 -242 16 -241 0 -257 -3 -282 -50 -6 -11 -66
-293 -135 -627 -68 -335 -153 -750 -190 -923 -36 -173 -91 -436 -121 -585 -63
-308 -90 -422 -138 -568 -98 -300 -247 -465 -486 -539 -105 -32 -304 -32 -435
0 -176 43 -271 111 -329 232 -31 64 -31 67 -31 220 l1 155 143 660 c78 363
194 896 257 1185 168 767 167 765 160 794 -3 14 -15 30 -26 36 -22 12 -1186
20 -1240 9z"/>
<path d="M22414 19816 c-17 -8 -43 -29 -57 -47 -13 -19 -144 -293 -290 -609
-146 -316 -504 -1090 -797 -1720 -293 -630 -561 -1206 -595 -1280 l-62 -135
265 -3 c297 -3 306 -1 343 68 11 19 98 212 193 429 96 216 183 402 193 413 41
47 53 48 567 48 324 0 493 -4 509 -11 12 -6 29 -19 36 -30 6 -11 18 -97 26
-192 55 -675 59 -697 111 -717 15 -6 281 -10 662 -10 732 0 682 -6 682 86 0
30 -36 384 -80 787 -77 705 -236 2203 -280 2627 -12 113 -26 222 -31 242 -18
71 9 68 -716 68 -523 -1 -654 -3 -679 -14z"/>
<path d="M33077 19816 c-61 -17 -82 -37 -106 -100 -27 -74 -65 -270 -57 -301
4 -15 17 -30 32 -35 15 -6 196 -10 435 -10 396 0 410 -1 429 -20 11 -11 20
-31 20 -45 0 -14 -22 -125 -49 -248 -37 -164 -505 -2356 -635 -2974 l-14 -63
632 0 c510 0 636 3 650 13 14 10 31 72 68 243 157 734 405 1906 509 2399 65
314 126 589 134 611 31 83 6 78 469 84 385 5 413 6 451 25 26 13 48 35 62 61
28 50 83 254 83 306 0 74 129 68 -1555 67 -1192 0 -1520 -3 -1558 -13z"/>
<path d="M26513 14071 c-45 -12 -81 -37 -104 -74 -16 -26 -19 -43 -15 -92 4
-50 19 -88 91 -232 89 -178 139 -243 187 -243 60 0 148 85 196 188 35 76 37
202 5 273 -28 63 -87 126 -146 155 -53 28 -158 39 -214 25z"/>
<path d="M30136 13977 c-13 -4 -29 -20 -35 -35 -5 -15 -53 -229 -106 -477 -53
-247 -111 -516 -129 -597 -27 -122 -30 -148 -18 -153 7 -3 58 -5 112 -5 114 0
197 21 256 66 53 41 122 152 171 274 54 136 77 227 104 408 23 160 22 322 -2
396 -18 54 -66 102 -114 114 -52 14 -208 19 -239 9z"/>
<path d="M13782 13955 c-11 -14 -23 -45 -27 -68 -14 -81 -114 -544 -144 -664
-35 -139 -39 -194 -14 -219 15 -14 31 -16 118 -11 134 7 186 27 256 96 169
169 267 592 181 783 -38 85 -88 107 -244 108 -102 0 -107 -1 -126 -25z"/>
<path d="M25778 12903 c-130 -138 -179 -391 -114 -590 49 -151 154 -269 279
-313 74 -26 197 -27 247 -2 67 33 65 38 -167 509 -114 232 -211 423 -214 423
-3 0 -17 -12 -31 -27z"/>
<path d="M13007 10473 c-19 -18 -3 -57 46 -111 28 -32 163 -186 298 -342 2087
-2414 4543 -4897 7159 -7240 1110 -994 3130 -2715 3245 -2764 70 -31 96 -17
295 152 96 81 414 348 705 592 639 535 948 798 1359 1154 3033 2628 5987 5582
8359 8359 l177 207 -1924 -2 -1923 -3 -35 -25 c-20 -14 -163 -162 -319 -330
-1712 -1839 -3512 -3595 -5509 -5376 -356 -317 -1030 -905 -1068 -933 -40 -28
-91 -30 -131 -5 -57 37 -1134 985 -1656 1458 -1762 1597 -3378 3190 -4936
4865 -212 228 -285 301 -324 320 l-49 26 -1881 3 c-1035 1 -1885 -1 -1888 -5z"/>
</g>
</svg>
